<mxfile host="app.diagrams.net" modified="2022-03-06T18:18:51.043Z" agent="5.0 (Windows)" etag="ix1w8e28uXxxm7kheZaC" version="16.6.6" type="github">
  <diagram id="ja25R-3xRUUmr9blD7j8" name="Page-1">
    <mxGraphModel dx="868" dy="450" grid="1" gridSize="10" guides="1" tooltips="1" connect="1" arrows="1" fold="1" page="1" pageScale="1" pageWidth="850" pageHeight="1100" math="0" shadow="0">
      <root>
        <mxCell id="0" />
        <mxCell id="1" parent="0" />
        <mxCell id="TeIjIXwK1naTthtcAqkj-6" style="edgeStyle=orthogonalEdgeStyle;rounded=0;orthogonalLoop=1;jettySize=auto;html=1;entryX=0;entryY=0.5;entryDx=0;entryDy=0;fontSize=24;strokeWidth=3;" edge="1" parent="1" source="TeIjIXwK1naTthtcAqkj-2" target="TeIjIXwK1naTthtcAqkj-4">
          <mxGeometry relative="1" as="geometry" />
        </mxCell>
        <mxCell id="TeIjIXwK1naTthtcAqkj-2" value="&lt;font style=&quot;font-size: 24px&quot;&gt;Player&lt;/font&gt;" style="rounded=1;whiteSpace=wrap;html=1;strokeWidth=3;" vertex="1" parent="1">
          <mxGeometry x="30" y="70" width="130" height="70" as="geometry" />
        </mxCell>
        <mxCell id="TeIjIXwK1naTthtcAqkj-4" value="1.The Restoration Project" style="ellipse;whiteSpace=wrap;html=1;aspect=fixed;fontSize=24;strokeWidth=3;" vertex="1" parent="1">
          <mxGeometry x="240" y="32.5" width="145" height="145" as="geometry" />
        </mxCell>
        <mxCell id="TeIjIXwK1naTthtcAqkj-7" style="edgeStyle=orthogonalEdgeStyle;rounded=0;orthogonalLoop=1;jettySize=auto;html=1;fontSize=24;strokeWidth=3;entryX=1;entryY=0.5;entryDx=0;entryDy=0;" edge="1" parent="1" source="TeIjIXwK1naTthtcAqkj-5" target="TeIjIXwK1naTthtcAqkj-4">
          <mxGeometry relative="1" as="geometry">
            <mxPoint x="390" y="105" as="targetPoint" />
          </mxGeometry>
        </mxCell>
        <mxCell id="TeIjIXwK1naTthtcAqkj-5" value="&lt;font style=&quot;font-size: 24px&quot;&gt;Steam API&lt;/font&gt;" style="rounded=1;whiteSpace=wrap;html=1;strokeWidth=3;" vertex="1" parent="1">
          <mxGeometry x="470" y="70" width="130" height="70" as="geometry" />
        </mxCell>
      </root>
    </mxGraphModel>
  </diagram>
</mxfile>
